<svg width="95" height="142" viewBox="0 0 95 142" xmlns="http://www.w3.org/2000/svg"><title>03</title><g transform="translate(-5 -30)" fill="none" fill-rule="evenodd"><path d="M20.202 155.89h4.37c-.322-.736-1.012-1.771-1.656-2.645h-.92a14.753 14.753 0 0 1-1.794 2.645zm3.979 3.565v-1.311h-4.577v1.311h4.577zm-7.268 3.611v-1.357h-3.749c-.069.46-.115.92-.184 1.357h3.933zm-3.864-9.798h-.69a17.84 17.84 0 0 1-2.024 2.622h3.91c-.207-.713-.667-1.748-1.196-2.622zm16.054-2.001v1.978H25.86c.46.598.874 1.219 1.104 1.679l-2.346.966h2.277v5.819h-7.291v1.357h8.418s-.023.667-.069.989c-.23 3.059-.506 4.554-1.104 5.152-.483.552-1.035.736-1.748.805-.644.069-1.725.092-2.921.046-.046-.805-.322-1.817-.759-2.484.966.092 1.932.115 2.346.092.345 0 .575-.023.782-.207.23-.23.414-.851.552-2.116h-5.497v5.681h-2.691v-4.485c-1.932 1.886-4.485 3.45-6.992 4.393-.391-.667-1.15-1.656-1.725-2.162 2.392-.713 4.876-1.978 6.67-3.427H9.921c.345-1.564.69-3.956.851-5.888h6.141v-1.311H9.944v-2.208c-.575-.391-1.518-.897-2.07-1.15 1.541-1.311 2.944-3.381 3.703-5.451l2.484.667c-.184.414-.368.851-.575 1.288h5.313v1.978h-2.99c.345.644.667 1.288.828 1.771l-2.254.851h5.474a21.65 21.65 0 0 0-2.185-1.242c1.38-1.242 2.553-3.289 3.128-5.313l2.645.621c-.115.414-.276.874-.46 1.311h6.118zm3.68.46h17.434v2.76H32.783v-2.76zm1.587 7.337H48.4v2.783H34.37v-2.783zm-2.875 7.751h19.964v2.806H31.495v-2.806zm31.096-2.047h-4.922v2.806h4.922v-2.806zm-7.521 6.21v-8.648h10.212v8.533h-2.691v-.92h-4.922v1.035H55.07zm7.061-16.468h-3.91c.552 1.035 1.035 2.392 1.265 3.289l-1.38.391h2.737a26.864 26.864 0 0 0 1.288-3.68zm.874 0l1.863.414c-.483 1.104-.943 2.3-1.403 3.266h2.691v2.484H54.012v-2.484h2.944c-.23-.943-.667-2.254-1.15-3.22l1.863-.46h-3.082v-2.461h4.347c-.184-.667-.46-1.38-.736-2.001l2.507-.713c.414.851.828 1.886 1.104 2.714h3.887v2.461h-2.691zm10.327-4.002l1.909 1.173c-.782 2.208-1.725 4.853-2.599 6.831 1.84 2.07 2.185 3.887 2.185 5.382 0 1.656-.368 2.783-1.219 3.381-.414.299-.92.46-1.518.552a8.925 8.925 0 0 1-1.771.046c-.046-.713-.253-1.794-.667-2.53.506.046.966.046 1.288.046.322 0 .598-.069.851-.23.391-.23.529-.805.529-1.587 0-1.242-.483-2.898-2.231-4.738.644-1.679 1.357-4.025 1.886-5.773h-2.576v17.848h-2.392V150.6h5.934l.391-.092zm15.893.253l2.576-.966c1.38 2.898 4.14 6.302 6.509 8.257-.69.529-1.702 1.587-2.208 2.323a71.094 71.094 0 0 1-1.288-1.311v.069c-.23 6.785-.506 9.499-1.311 10.442-.575.736-1.196.989-2.07 1.081-.828.115-2.116.115-3.496.069-.046-.828-.391-1.978-.874-2.76 1.242.115 2.461.115 3.013.115.414 0 .667-.069.92-.299.483-.529.713-2.484.92-7.153h-4.807c-.598 4.347-2.116 8.257-8.027 10.442-.322-.736-1.104-1.84-1.725-2.438 5.129-1.656 6.348-4.692 6.831-8.004h-3.703v-1.357c-.437.483-.897.92-1.38 1.311-.506-.575-1.656-1.679-2.323-2.162 2.691-1.932 5.014-5.152 6.302-8.579l2.944.805c-1.035 2.668-2.576 5.198-4.301 7.268h12.121c-1.725-2.139-3.427-4.692-4.623-7.153z" fill="#231916"/><path d="M7 139h91" stroke="#19A562" stroke-width="4"/><path d="M26.748 114.72c2.292 0 4.055-.886 5.29-2.658 1.236-1.772 1.854-5.541 1.854-11.306v-46.03c-.036-6.983-1.665-10.904-4.888-11.763-.645-.143-1.674-.215-3.088-.215-1.415 0-2.776.698-4.083 2.095-1.306 1.396-1.96 4.673-1.96 9.829v46.084c0 5.872.582 9.668 1.746 11.387 1.163 1.718 2.873 2.578 5.129 2.578zm16.436 5.64c-3.366 4.512-8.791 6.768-16.275 6.768-7.484 0-12.917-2.256-16.301-6.768-3.384-4.511-5.076-11.136-5.076-19.873v-45.17c0-8.308 1.71-14.547 5.13-18.719 3.42-4.171 8.835-6.257 16.247-6.257 7.412 0 12.828 2.086 16.248 6.257 3.42 4.172 5.13 10.411 5.13 18.718v45.171c0 8.737-1.702 15.362-5.103 19.873zm56.631-21.377c0 9.454-1.665 16.499-4.995 21.136-3.33 4.637-8.674 6.955-16.032 6.955-7.359 0-12.515-2.121-15.47-6.365-2.953-4.243-4.43-10.965-4.43-20.168v-6.177h13.481v6.553c0 5.192.403 8.79 1.209 10.796.805 2.005 2.569 3.008 5.29 3.008 2.722 0 4.539-1.209 5.452-3.626.913-2.417 1.37-6.66 1.37-12.73 0-6.069-.591-10.392-1.773-12.97-1.182-2.579-3.491-3.868-6.929-3.868h-4.082V70.57h3.975c3.366 0 5.675-1.137 6.929-3.41 1.253-2.274 1.88-6.007 1.88-11.2 0-5.191-.529-8.682-1.585-10.473-1.056-1.79-2.73-2.685-5.022-2.685-2.292 0-3.894.94-4.807 2.82-.913 1.88-1.37 5.147-1.37 9.802v2.847h-13.91v-2.955c0-8.63 1.52-14.94 4.565-18.933 3.043-3.992 8.137-5.988 15.28-5.988 7.144 0 12.399 2.058 15.764 6.176 3.366 4.118 5.05 10.366 5.05 18.745 0 5.192-.806 9.552-2.418 13.079-1.611 3.527-4.046 5.881-7.304 7.063 3.58 1.683 6.123 4.476 7.627 8.379 1.503 3.903 2.255 8.952 2.255 15.146z" fill="#231916"/></g></svg>