<?xml version="1.0" encoding="UTF-8"?>
<svg width="95px" height="142px" viewBox="0 0 95 142" version="1.1" xmlns="http://www.w3.org/2000/svg" xmlns:xlink="http://www.w3.org/1999/xlink">
    <!-- Generator: Sketch 51.3 (57544) - http://www.bohemiancoding.com/sketch -->
    <title>02</title>
    <desc>Created with Sketch.</desc>
    <defs></defs>
    <g id="Page-1" stroke="none" stroke-width="1" fill="none" fill-rule="evenodd">
        <g id="02" transform="translate(-5.000000, -30.000000)">
            <path d="M20.202,155.89 L24.572,155.89 C24.25,155.154 23.56,154.119 22.916,153.245 L21.996,153.245 C21.467,154.257 20.823,155.154 20.202,155.89 Z M24.181,159.455 L24.181,158.144 L19.604,158.144 L19.604,159.455 L24.181,159.455 Z M16.913,163.066 L16.913,161.709 L13.164,161.709 C13.095,162.169 13.049,162.629 12.98,163.066 L16.913,163.066 Z M13.049,153.268 L12.359,153.268 C11.715,154.28 11.025,155.154 10.335,155.89 L14.245,155.89 C14.038,155.177 13.578,154.142 13.049,153.268 Z M29.103,151.267 L29.103,153.245 L25.86,153.245 C26.32,153.843 26.734,154.464 26.964,154.924 L24.618,155.89 L26.895,155.89 L26.895,161.709 L19.604,161.709 L19.604,163.066 L28.022,163.066 C28.022,163.066 27.999,163.733 27.953,164.055 C27.723,167.114 27.447,168.609 26.849,169.207 C26.366,169.759 25.814,169.943 25.101,170.012 C24.457,170.081 23.376,170.104 22.18,170.058 C22.134,169.253 21.858,168.241 21.421,167.574 C22.387,167.666 23.353,167.689 23.767,167.666 C24.112,167.666 24.342,167.643 24.549,167.459 C24.779,167.229 24.963,166.608 25.101,165.343 L19.604,165.343 L19.604,171.024 L16.913,171.024 L16.913,166.539 C14.981,168.425 12.428,169.989 9.921,170.932 C9.53,170.265 8.771,169.276 8.196,168.77 C10.588,168.057 13.072,166.792 14.866,165.343 L9.921,165.343 C10.266,163.779 10.611,161.387 10.772,159.455 L16.913,159.455 L16.913,158.144 L9.944,158.144 L9.944,155.936 C9.369,155.545 8.426,155.039 7.874,154.786 C9.415,153.475 10.818,151.405 11.577,149.335 L14.061,150.002 C13.877,150.416 13.693,150.853 13.486,151.29 L18.799,151.29 L18.799,153.268 L15.809,153.268 C16.154,153.912 16.476,154.556 16.637,155.039 L14.383,155.89 L19.857,155.89 C19.236,155.476 18.247,154.924 17.672,154.648 C19.052,153.406 20.225,151.359 20.8,149.335 L23.445,149.956 C23.33,150.37 23.169,150.83 22.985,151.267 L29.103,151.267 Z M33.197,152.67 L49.803,152.67 L49.803,155.683 L33.197,155.683 L33.197,152.67 Z M31.288,165.941 L51.712,165.941 L51.712,169.092 L31.288,169.092 L31.288,165.941 Z M62.591,164.768 L57.669,164.768 L57.669,167.574 L62.591,167.574 L62.591,164.768 Z M55.07,170.978 L55.07,162.33 L65.282,162.33 L65.282,170.863 L62.591,170.863 L62.591,169.943 L57.669,169.943 L57.669,170.978 L55.07,170.978 Z M62.131,154.51 L58.221,154.51 C58.773,155.545 59.256,156.902 59.486,157.799 L58.106,158.19 L60.843,158.19 C61.326,157.109 61.832,155.637 62.131,154.51 Z M63.005,154.51 L64.868,154.924 C64.385,156.028 63.925,157.224 63.465,158.19 L66.156,158.19 L66.156,160.674 L54.012,160.674 L54.012,158.19 L56.956,158.19 C56.726,157.247 56.289,155.936 55.806,154.97 L57.669,154.51 L54.587,154.51 L54.587,152.049 L58.934,152.049 C58.75,151.382 58.474,150.669 58.198,150.048 L60.705,149.335 C61.119,150.186 61.533,151.221 61.809,152.049 L65.696,152.049 L65.696,154.51 L63.005,154.51 Z M73.332,150.508 L75.241,151.681 C74.459,153.889 73.516,156.534 72.642,158.512 C74.482,160.582 74.827,162.399 74.827,163.894 C74.827,165.55 74.459,166.677 73.608,167.275 C73.194,167.574 72.688,167.735 72.09,167.827 C71.584,167.896 70.917,167.919 70.319,167.873 C70.273,167.16 70.066,166.079 69.652,165.343 C70.158,165.389 70.618,165.389 70.94,165.389 C71.262,165.389 71.538,165.32 71.791,165.159 C72.182,164.929 72.32,164.354 72.32,163.572 C72.32,162.33 71.837,160.674 70.089,158.834 C70.733,157.155 71.446,154.809 71.975,153.061 L69.399,153.061 L69.399,170.909 L67.007,170.909 L67.007,150.6 L72.941,150.6 L73.332,150.508 Z M89.225,150.761 L91.801,149.795 C93.181,152.693 95.941,156.097 98.31,158.052 C97.62,158.581 96.608,159.639 96.102,160.375 C95.688,159.961 95.251,159.524 94.814,159.064 L94.814,159.133 C94.584,165.918 94.308,168.632 93.503,169.575 C92.928,170.311 92.307,170.564 91.433,170.656 C90.605,170.771 89.317,170.771 87.937,170.725 C87.891,169.897 87.546,168.747 87.063,167.965 C88.305,168.08 89.524,168.08 90.076,168.08 C90.49,168.08 90.743,168.011 90.996,167.781 C91.479,167.252 91.709,165.297 91.916,160.628 L87.109,160.628 C86.511,164.975 84.993,168.885 79.082,171.07 C78.76,170.334 77.978,169.23 77.357,168.632 C82.486,166.976 83.705,163.94 84.188,160.628 L80.485,160.628 L80.485,159.271 C80.048,159.754 79.588,160.191 79.105,160.582 C78.599,160.007 77.449,158.903 76.782,158.42 C79.473,156.488 81.796,153.268 83.084,149.841 L86.028,150.646 C84.993,153.314 83.452,155.844 81.727,157.914 L93.848,157.914 C92.123,155.775 90.421,153.222 89.225,150.761 Z" id="第二部分" fill="#231916"></path>
            <path d="M7,139 L98,139" id="Stroke-3" stroke="#19A562" stroke-width="4"></path>
            <path d="M26.7480469,114.720703 C29.039725,114.720703 30.8032165,113.834482 32.0385742,112.062012 C33.273932,110.289542 33.8916016,106.520862 33.8916016,100.755859 L33.8916016,54.7255859 C33.8557941,47.7431292 32.2265786,43.8222699 29.0039062,42.9628906 C28.3593718,42.8196607 27.3299224,42.7480469 25.9155273,42.7480469 C24.5011323,42.7480469 23.1404688,43.4462821 21.8334961,44.8427734 C20.5265234,46.2392648 19.8730469,49.5155992 19.8730469,54.671875 L19.8730469,100.755859 C19.8730469,106.628285 20.4549095,110.42382 21.6186523,112.142578 C22.7823951,113.861337 24.4921762,114.720703 26.7480469,114.720703 Z M43.1835938,120.360352 C39.8176915,124.872093 34.3929411,127.12793 26.9091797,127.12793 C19.4254183,127.12793 13.9917161,124.872093 10.6079102,120.360352 C7.22410417,115.84861 5.53222656,109.224328 5.53222656,100.487305 L5.53222656,55.3164062 C5.53222656,47.009073 7.24200764,40.7697149 10.6616211,36.5981445 C14.0812345,32.4265742 19.4970333,30.3408203 26.9091797,30.3408203 C34.3213261,30.3408203 39.7371248,32.4265742 43.1567383,36.5981445 C46.5763517,40.7697149 48.2861328,47.009073 48.2861328,55.3164062 L48.2861328,100.487305 C48.2861328,109.224328 46.5853035,115.84861 43.1835938,120.360352 Z M61.8417969,126 L61.8417969,120.414062 C61.8417969,115.472632 62.6564046,110.61184 64.2856445,105.831543 C65.9148844,101.051246 68.4661285,95.6175435 71.9394531,89.5302734 C72.082683,89.3154286 73.3896361,87.0774953 75.8603516,82.8164062 C78.331067,78.5553172 80.1393172,75.6191487 81.2851562,74.0078125 C84.078139,69.4244563 85.4746094,63.0776773 85.4746094,54.9672852 C85.4746094,46.856893 83.7558766,42.8017578 80.3183594,42.8017578 C77.4537617,42.8017578 75.6813185,45.0575946 75.0009766,49.5693359 C74.7145168,51.5029394 74.5712891,53.9199074 74.5712891,56.8203125 L74.5712891,68.7978516 L60.8212891,68.7978516 L60.8212891,62.9970703 C60.8212891,51.2880274 61.9223523,43.3746951 64.1245117,39.2568359 C66.3266712,35.1389768 69.3613088,32.5071672 73.2285156,31.3613281 C75.3769639,30.7167937 77.9729666,30.3945312 81.0166016,30.3945312 C84.0602366,30.3945312 86.799467,31.074863 89.234375,32.4355469 C91.5976681,33.7962308 93.4954355,35.6939982 94.9277344,38.1289062 C97.7207171,42.8912999 99.1171875,49.0948511 99.1171875,56.7397461 C99.1171875,64.3846411 97.6311998,71.0894894 94.6591797,76.8544922 C91.6871596,82.619495 88.7509911,87.7398865 85.8505859,92.2158203 C80.5510803,100.415731 77.1136146,107.917284 75.5380859,114.720703 L97.3447266,114.720703 L97.3447266,126 L61.8417969,126 Z" fill="#231916"></path>
        </g>
    </g>
</svg>