<?xml version="1.0" encoding="UTF-8"?>
<svg width="36px" height="36px" viewBox="0 0 36 36" version="1.1" xmlns="http://www.w3.org/2000/svg" xmlns:xlink="http://www.w3.org/1999/xlink">
    <!-- Generator: Sketch 46.2 (44496) - http://www.bohemiancoding.com/sketch -->
    <title>ic_profile</title>
    <desc>Created with Sketch.</desc>
    <defs></defs>
    <g id="dashboard" stroke="none" stroke-width="1" fill="none" fill-rule="evenodd" stroke-linecap="round" opacity="0.600000024" stroke-linejoin="round">
        <g id="ic_profile" stroke="#000000">
            <g id="Group-15" transform="translate(5.000000, 5.000000)">
                <path d="M22.1754,25.8764831 L3.53677662,25.8764831 C1.59724416,25.8764831 0.0247506494,24.3039896 0.0247506494,22.3644571 L0.0247506494,3.72583377 C0.0247506494,1.7863013 1.59724416,0.213807792 3.53677662,0.213807792 L22.1754,0.213807792 C24.1149325,0.213807792 25.687426,1.7863013 25.687426,3.72583377 L25.687426,22.3644571 C25.687426,24.3039896 24.1149325,25.8764831 22.1754,25.8764831 L22.1754,25.8764831 Z" id="Stroke-59"></path>
                <path d="M11.9425091,12.4755429 C11.9425091,14.0135948 10.6958597,15.2602442 9.15780779,15.2602442 C7.62009351,15.2602442 6.37310649,14.0135948 6.37310649,12.4755429 C6.37310649,10.9374909 7.62009351,9.69084156 9.15780779,9.69084156 C10.6958597,9.69084156 11.9425091,10.9374909 11.9425091,12.4755429 L11.9425091,12.4755429 Z" id="Stroke-61"></path>
                <path d="M3.84033506,22.9889974 C3.84033506,20.0523481 6.22119221,17.6714909 9.15784156,17.6714909 C12.0948286,17.6714909 14.4753481,20.0523481 14.4753481,22.9889974" id="Stroke-63"></path>
                <path d="M22.8224623,7.04481818 C22.8224623,9.07720779 21.1750078,10.725 19.1422805,10.725 C17.1098909,10.725 15.4624364,9.07720779 15.4624364,7.04481818 C15.4624364,5.01242857 17.1098909,3.36463636 19.1422805,3.36463636 C21.1750078,3.36463636 22.8224623,5.01242857 22.8224623,7.04481818 L22.8224623,7.04481818 Z" id="Stroke-65"></path>
                <path d="M19.1424494,4.90177662 C20.3259558,4.90177662 21.2855922,5.86107532 21.2855922,7.04491948" id="Stroke-67"></path>
                <path d="M19.1424494,9.18782597 C17.9589429,9.18782597 16.9993065,8.22852727 16.9993065,7.04468312" id="Stroke-69"></path>
                <path d="M17.6117922,14.1818182 L22.0084935,14.1818182" id="Stroke-71"></path>
                <path d="M17.6117922,16.5454545 L21.3331688,16.5454545" id="Stroke-73"></path>
                <path d="M17.6117922,18.9090909 L22.6838182,18.9090909" id="Stroke-75"></path>
            </g>
        </g>
    </g>
</svg>