<?xml version="1.0" encoding="UTF-8"?>
<svg width="36px" height="36px" viewBox="0 0 36 36" version="1.1" xmlns="http://www.w3.org/2000/svg" xmlns:xlink="http://www.w3.org/1999/xlink">
    <!-- Generator: Sketch 46.2 (44496) - http://www.bohemiancoding.com/sketch -->
    <title>ic_security</title>
    <desc>Created with Sketch.</desc>
    <defs></defs>
    <g id="dashboard" stroke="none" stroke-width="1" fill="none" fill-rule="evenodd" stroke-linecap="round" opacity="0.600000024" stroke-linejoin="round">
        <g id="ic_security" stroke="#000000">
            <g id="Icons/Lock" transform="translate(8.000000, 5.000000)">
                <g id="Layer_1">
                    <g id="Group">
                        <path d="M18.9873418,25.9199997 L0.759493671,25.9199997 C0.253164557,25.9199997 -2.77555756e-17,25.6762497 -2.77555756e-17,25.1887497 L-2.77555756e-17,11.0512497 C-2.77555756e-17,10.5637497 0.253164557,10.3199997 0.759493671,10.3199997 L19.2405063,10.3199997 C19.7468354,10.3199997 20,10.5637497 20,11.0512497 L20,25.1887497 C19.7468354,25.4324997 19.4936709,25.9199997 18.9873418,25.9199997 L18.9873418,25.9199997 Z" id="Shape"></path>
                        <path d="M3.4125,9.83125 L3.4125,6.41875 C3.4125,3.00625 6.3375,0.08125 9.75,0.08125 C13.1625,0.08125 16.0875,3.00625 16.0875,6.41875 L16.0875,10.075" id="Shape"></path>
                        <path d="M13.3400002,22.5098079 L12.1207694,17.3890386 C12.3646155,16.9013462 12.6084617,16.4136539 12.6084617,15.9259616 C12.6084617,14.7067308 11.633077,13.4875 10.1700001,13.4875 C8.70692312,13.4875 7.73153848,14.4628846 7.73153848,15.9259616 C7.73153848,16.4136539 7.97538464,17.1451924 8.2192308,17.3890386 L7,22.5098079 L13.3400002,22.5098079 L13.3400002,22.5098079 Z" id="Shape" fill="#FFFFFF"></path>
                    </g>
                </g>
            </g>
        </g>
    </g>
</svg>