<?xml version="1.0" encoding="UTF-8"?>
<svg width="36px" height="36px" viewBox="0 0 36 36" version="1.1" xmlns="http://www.w3.org/2000/svg" xmlns:xlink="http://www.w3.org/1999/xlink">
    <!-- Generator: Sketch 46.2 (44496) - http://www.bohemiancoding.com/sketch -->
    <title>ic_setting</title>
    <desc>Created with Sketch.</desc>
    <defs></defs>
    <g id="dashboard" stroke="none" stroke-width="1" fill="none" fill-rule="evenodd">
        <g id="ic_setting">
            <g id="Group">
                <g id="Icons/Cupon" fill="#D8D8D8" opacity="0">
                    <rect id="Bounds" x="0" y="0" width="36" height="36"></rect>
                </g>
                <g id="Page-1" opacity="0.600000024" transform="translate(5.000000, 5.000000)" stroke="#000000" stroke-linecap="round" stroke-linejoin="round">
                    <path d="M19.99985,16.8410667 L23.1745583,20.8483167 L20.8481,23.1742333 L16.7715167,19.980025 C16.29485,20.2356917 15.7190583,20.4767333 15.1903917,20.6311083 L14.6016,25.761775 L11.3120583,25.761775 L10.7248917,20.63165 C10.1431417,20.4615667 9.59064167,20.2329833 9.07280833,19.9421083 L5.06555833,23.1742333 L2.73964167,20.8483167 L5.94143333,16.7858167 C5.678725,16.3004833 5.44039167,15.7295667 5.28276667,15.1900667 L0.1521,14.6018167 L0.1521,11.312275 L5.28276667,10.7234833 C5.45285,10.1428167 5.68143333,9.589775 5.97176667,9.07248333 L2.73964167,5.065775 L5.06555833,2.73985833 L9.18764167,5.90969167 C9.59876667,5.696275 10.638225,5.325775 10.638225,5.325775 L11.3120583,0.152316667 L14.6016,0.152316667 L15.1893083,5.28244167 C15.7710583,5.452525 16.3230167,5.70006667 16.8413917,5.99148333 L20.8481,2.73985833 L23.1745583,5.065775 L19.9830583,9.183525 C19.9830583,9.183525 20.479225,10.204025 20.6308917,10.7218583 L25.7615583,11.312275 L25.7615583,14.6018167 L20.6308917,14.6018167 L19.99985,16.8410667 Z" id="Stroke-1"></path>
                    <path d="M15.1380667,9.31634167 C16.3736083,10.0578833 17.2001917,11.4109667 17.2001917,12.9568833 C17.2001917,15.300675 15.3005667,17.2003 12.956775,17.2003 C10.613525,17.2003 8.71335833,15.300675 8.71335833,12.9568833 C8.71335833,10.6136333 10.613525,8.71346667 12.956775,8.71346667 C12.956775,8.71346667 13,8.42693333 14,8.71346667 C15,9 15.1380667,9.31634167 15.1380667,9.31634167 Z" id="Stroke-3"></path>
                </g>
            </g>
        </g>
    </g>
</svg>