<?xml version="1.0" encoding="UTF-8"?>
<svg width="28px" height="28px" viewBox="0 0 28 28" version="1.1" xmlns="http://www.w3.org/2000/svg" xmlns:xlink="http://www.w3.org/1999/xlink">
    <!-- Generator: Sketch 51.3 (57544) - http://www.bohemiancoding.com/sketch -->
    <title>coupon-wh</title>
    <desc>Created with Sketch.</desc>
    <defs></defs>
    <g id="Page-2" stroke="none" stroke-width="1" fill="none" fill-rule="evenodd">
        <g id="coupon-wh" fill="#FFFFFF" fill-rule="nonzero">
            <path d="M3.5,19.8264982 C3.5,20.4772359 4.01901583,21 4.65592766,21 L23.3440723,21 C23.9758537,21 24.5,20.4731496 24.5,19.8264982 L24.5,8.17350177 C24.5,7.52276412 23.9809842,7 23.3440723,7 L4.65592766,7 C4.02414625,7 3.5,7.52685037 3.5,8.17350177 L3.5,10.2172048 C4.93418662,11.1756971 5.83333333,12.7985365 5.83333333,14.5833333 C5.83333333,16.3681301 4.93418662,17.9909696 3.5,18.9494619 L3.5,19.8264982 Z M2.33333333,18.2737152 C3.71288595,17.6183612 4.66666667,16.212231 4.66666667,14.5833333 C4.66666667,12.9544357 3.71288595,11.5483055 2.33333333,10.8929515 L2.33333333,8.17350177 C2.33333333,6.88106243 3.38124778,5.83333333 4.65592766,5.83333333 L23.3440723,5.83333333 C24.6268058,5.83333333 25.6666667,6.87990348 25.6666667,8.17350177 L25.6666667,19.8264982 C25.6666667,21.1189376 24.6187522,22.1666667 23.3440723,22.1666667 L4.65592766,22.1666667 C3.37319423,22.1666667 2.33333333,21.1200965 2.33333333,19.8264982 L2.33333333,18.2737152 Z M11.0833333,18.6666667 L11.0833333,16.9166667 C11.0833333,16.5945006 10.8221661,16.3333333 10.5,16.3333333 C10.1778339,16.3333333 9.91666667,16.5945006 9.91666667,16.9166667 L9.91666667,18.6666667 C9.91666667,18.9888328 10.1778339,19.25 10.5,19.25 C10.8221661,19.25 11.0833333,18.9888328 11.0833333,18.6666667 Z M11.0833333,15.1666667 L11.0833333,13.4166667 C11.0833333,13.0945006 10.8221661,12.8333333 10.5,12.8333333 C10.1778339,12.8333333 9.91666667,13.0945006 9.91666667,13.4166667 L9.91666667,15.1666667 C9.91666667,15.4888328 10.1778339,15.75 10.5,15.75 C10.8221661,15.75 11.0833333,15.4888328 11.0833333,15.1666667 Z M11.0833333,11.6666667 L11.0833333,9.91666667 C11.0833333,9.59450056 10.8221661,9.33333333 10.5,9.33333333 C10.1778339,9.33333333 9.91666667,9.59450056 9.91666667,9.91666667 L9.91666667,11.6666667 C9.91666667,11.9888328 10.1778339,12.25 10.5,12.25 C10.8221661,12.25 11.0833333,11.9888328 11.0833333,11.6666667 Z" id="Combined-Shape"></path>
        </g>
    </g>
</svg>