<svg xmlns="http://www.w3.org/2000/svg" width="24" height="24" viewBox="0 0 24 24">
    <g fill="none" fill-rule="evenodd">
        <g fill="#666" fill-rule="nonzero">
            <path d="M17.852 15a2.133 2.133 0 1 0-4.265.001 2.133 2.133 0 0 0 4.265 0zm.777 0a2.91 2.91 0 1 1-5.82 0 2.91 2.91 0 0 1 5.82 0z"/>
            <path d="M20.006 9.864c.226 0 .404.191.388.416l-.755 10.798c-.036.6-.534 1.07-1.136 1.07h-5.72c-.602 0-1.1-.47-1.135-1.066l-.756-10.802a.389.389 0 0 1 .388-.416h8.726zm-8.31.777l.727 10.39a.36.36 0 0 0 .36.34h5.72c.19 0 .349-.15.36-.343l.727-10.387h-7.894z"/>
            <path d="M20.339 9.305a1.208 1.208 0 0 0-.147-.34.536.536 0 0 0-.071-.09h-8.956a.536.536 0 0 0-.071.09 1.225 1.225 0 0 0-.143.32l-.103.58h9.59l-.1-.56zm-9.166-.439a.015.015 0 0 0 .003-.001l-.003.001zm9.73 1.775h-10.52a.388.388 0 0 1-.382-.457l.19-1.055c.119-.513.452-1.031.927-1.031h9.05c.475 0 .809.518.932 1.05l.185 1.036a.388.388 0 0 1-.382.457z"/>
            <path d="M10.934 19.658a.389.389 0 0 1 0 .777h-5.83A1.355 1.355 0 0 1 3.75 19.08V4.105c0-.748.607-1.355 1.355-1.355h7.369c.748 0 1.355.607 1.355 1.355v2.872a.389.389 0 0 1-.777 0V4.105a.578.578 0 0 0-.578-.578h-7.37a.578.578 0 0 0-.577.578V19.08c0 .319.259.578.578.578h5.829z"/>
            <path d="M5.812 15.587h4.822a.389.389 0 0 1 0 .777h-5.21a.389.389 0 0 1-.389-.389V4.62c0-.214.174-.388.389-.388H12.3c.215 0 .389.174.389.388v2.377a.388.388 0 1 1-.777 0V5.009h-6.1v10.578zM9.223 18.08a.486.486 0 1 0-.971 0 .486.486 0 0 0 .97 0zm.777 0a1.263 1.263 0 1 1-2.525 0 1.263 1.263 0 0 1 2.525 0z"/>
        </g>
        <path d="M.5.5h23v23H.5z"/>
    </g>
</svg>
