<?xml version="1.0" encoding="UTF-8" standalone="no"?>
<svg width="24px" height="24px" viewBox="0 0 24 24" version="1.1" xmlns="http://www.w3.org/2000/svg" xmlns:xlink="http://www.w3.org/1999/xlink">
    <!-- Generator: Sketch 46.2 (44496) - http://www.bohemiancoding.com/sketch -->
    <title>Artboard</title>
    <desc>Created with Sketch.</desc>
    <defs></defs>
    <g id="Page-1" stroke="none" stroke-width="1" fill="none" fill-rule="evenodd" opacity="0.600000024">
        <g id="Artboard">
            <g id="icon-receipt" transform="translate(5.000000, 3.000000)">
                <g id="2.2-Iconography">
                    <g id="icon/Activity-Dark">
                        <g id="Group">
                            <path d="M12.9893955,0 C12.9893955,0.701684211 12.4205053,1.27057444 11.7188211,1.27057444 C11.0169384,1.27057444 10.4480481,0.701684211 10.4480481,0 L9.74715789,0 C9.74715789,0.701684211 9.17826766,1.27057444 8.47658345,1.27057444 C7.77470076,1.27057444 7.20581053,0.701684211 7.20581053,0 L6.5049203,0 C6.5049203,0.701684211 5.93603008,1.27057444 5.23434587,1.27057444 C4.53246316,1.27057444 3.96357293,0.701684211 3.96357293,0 L3.26268271,0 C3.26268271,0.701684211 2.69379248,1.27057444 1.99190977,1.27057444 C1.29022556,1.27057444 0.721335339,0.701684211 0.721335339,0 L0,0 L0,17.3178045 L0.721335339,17.3178045 C0.721335339,16.6161203 1.29022556,16.0472301 1.99190977,16.0472301 C2.69379248,16.0472301 3.26268271,16.6161203 3.26268271,17.3178045 L3.96357293,17.3178045 C3.96357293,16.6161203 4.53246316,16.0472301 5.23434587,16.0472301 C5.93603008,16.0472301 6.5049203,16.6161203 6.5049203,17.3178045 L7.20581053,17.3178045 C7.20581053,16.6161203 7.77470076,16.0472301 8.47658345,16.0472301 C9.17826766,16.0472301 9.74715789,16.6161203 9.74715789,17.3178045 L10.4480481,17.3178045 C10.4480481,16.6161203 11.0169384,16.0472301 11.7188211,16.0472301 C12.4205053,16.0472301 12.9893955,16.6161203 12.9893955,17.3178045 L13.7379248,17.3178045 L13.7379248,0 L12.9893955,0 Z" id="Fill-1" fill="#FFFFFF" fill-rule="nonzero" opacity="0"></path>
                            <path d="M12.9893955,0 C12.9893955,0.701684211 12.4205053,1.27057444 11.7188211,1.27057444 C11.0169384,1.27057444 10.4480481,0.701684211 10.4480481,0 L9.74715789,0 C9.74715789,0.701684211 9.17826766,1.27057444 8.47658345,1.27057444 C7.77470076,1.27057444 7.20581053,0.701684211 7.20581053,0 L6.5049203,0 C6.5049203,0.701684211 5.93603008,1.27057444 5.23434587,1.27057444 C4.53246316,1.27057444 3.96357293,0.701684211 3.96357293,0 L3.26268271,0 C3.26268271,0.701684211 2.69379248,1.27057444 1.99190977,1.27057444 C1.29022556,1.27057444 0.721335339,0.701684211 0.721335339,0 L0,0 L0,17.3178045 L0.721335339,17.3178045 C0.721335339,16.6161203 1.29022556,16.0472301 1.99190977,16.0472301 C2.69379248,16.0472301 3.26268271,16.6161203 3.26268271,17.3178045 L3.96357293,17.3178045 C3.96357293,16.6161203 4.53246316,16.0472301 5.23434587,16.0472301 C5.93603008,16.0472301 6.5049203,16.6161203 6.5049203,17.3178045 L7.20581053,17.3178045 C7.20581053,16.6161203 7.77470076,16.0472301 8.47658345,16.0472301 C9.17826766,16.0472301 9.74715789,16.6161203 9.74715789,17.3178045 L10.4480481,17.3178045 C10.4480481,16.6161203 11.0169384,16.0472301 11.7188211,16.0472301 C12.4205053,16.0472301 12.9893955,16.6161203 12.9893955,17.3178045 L13.7379248,17.3178045 L13.7379248,0 L12.9893955,0 L12.9893955,0 Z" id="Stroke-3" stroke="#000000" stroke-linecap="round" stroke-linejoin="round"></path>
                            <path d="M1.78646616,3.15789474 L3.80457744,3.15789474" id="Stroke-5" stroke="#000000" stroke-linecap="round" stroke-linejoin="round"></path>
                            <path d="M1.78646616,4.73684211 L11.380385,4.73684211" id="Stroke-7" stroke="#000000" stroke-linecap="round" stroke-linejoin="round"></path>
                            <path d="M9.32932334,6.31578947 L11.3474346,6.31578947" id="Stroke-9" stroke="#000000" stroke-linecap="round" stroke-linejoin="round"></path>
                            <path d="M1.78646616,7.89473684 L11.380385,7.89473684" id="Stroke-11" stroke="#000000" stroke-linecap="round" stroke-linejoin="round"></path>
                            <path d="M9.32932334,9.47368421 L11.3474346,9.47368421" id="Stroke-13" stroke="#000000" stroke-linecap="round" stroke-linejoin="round"></path>
                            <path d="M4.26687519,12.4810466 C3.78393384,12.4608 3.29761805,12.698003 3.01615037,13.0910256 C3.49809924,12.9332211 3.97984963,12.775615 4.4616,12.6178105 C4.57930827,13.6293474 3.93320301,14.6799879 2.97744361,15.0315248 C3.21623458,14.147224 3.81430376,13.3818226 4.56442105,12.856403 C5.31473684,12.3309834 6.2091609,12.0342316 7.11648722,11.9097744 C7.17980752,12.4467068 6.98230376,13.0086497 6.59702256,13.387976 C6.89714887,12.9397714 7.4342797,12.6606857 7.97359397,12.672397 C7.95870679,12.8115429 7.94381953,12.9506887 7.92893234,13.0898346 C8.89064661,13.0326677 9.85236087,12.9756992 10.8142737,12.9187308" id="Fill-15" fill="#FFFFFF" fill-rule="nonzero"></path>
                            <path d="M4.26687519,12.4810466 C3.78393384,12.4608 3.29761805,12.698003 3.01615037,13.0910256 C3.49809924,12.9332211 3.97984963,12.775615 4.4616,12.6178105 C4.57930827,13.6293474 3.93320301,14.6799879 2.97744361,15.0315248 C3.21623458,14.147224 3.81430376,13.3818226 4.56442105,12.856403 C5.31473684,12.3309834 6.2091609,12.0342316 7.11648722,11.9097744 C7.17980752,12.4467068 6.98230376,13.0086497 6.59702256,13.387976 C6.89714887,12.9397714 7.4342797,12.6606857 7.97359397,12.672397 C7.95870679,12.8115429 7.94381953,12.9506887 7.92893234,13.0898346 C8.89064661,13.0326677 9.85236087,12.9756992 10.8142737,12.9187308" id="Stroke-17" stroke="#000000" stroke-linecap="round" stroke-linejoin="round"></path>
                        </g>
                    </g>
                </g>
            </g>
        </g>
    </g>
</svg>