<?xml version="1.0" encoding="UTF-8"?>
<svg width="13px" height="14px" viewBox="0 0 13 14" version="1.1" xmlns="http://www.w3.org/2000/svg" xmlns:xlink="http://www.w3.org/1999/xlink">
    <!-- Generator: Sketch 51.3 (57544) - http://www.bohemiancoding.com/sketch -->
    <title>star-gray</title>
    <desc>Created with Sketch.</desc>
    <defs></defs>
    <g id="1010---status-bar-ux" stroke="none" stroke-width="1" fill="none" fill-rule="evenodd">
        <g id="welcome-level" transform="translate(-693.000000, -146.000000)" fill="#4F4F4F">
            <g id="dashboard-" transform="translate(580.000000, 29.000000)">
                <g id="Group-8" transform="translate(81.000000, 111.000000)">
                    <path d="M38.3333333,6.875 C38.1543305,6.875 37.995744,6.99477579 37.9408883,7.17144508 L36.6427056,11.3460591 L32.4134552,11.3366482 L32.4124241,11.3366482 C32.2338338,11.3366482 32.0754534,11.4557823 32.0201853,11.6322377 C31.9649171,11.8086931 32.0257533,12.0020455 32.1707291,12.1109131 L35.5977664,14.6813871 L34.2820547,18.8502263 C34.2263741,19.0266817 34.2867978,19.2202479 34.4315674,19.3293294 C34.5039521,19.3838702 34.5889166,19.4110337 34.6740873,19.4110337 C34.7594642,19.4110337 34.8448411,19.3836563 34.9172259,19.3289017 L38.3333333,16.742814 L41.7494408,19.3289017 C41.8218256,19.3836563 41.9072025,19.4110337 41.9925794,19.4110337 C42.0777501,19.4110337 42.1627145,19.3838702 42.2350993,19.3293294 C42.3798688,19.2202479 42.4402926,19.0266817 42.384612,18.8502263 L41.0689002,14.6813871 L44.4959375,12.1109131 C44.6409133,12.0020455 44.7017495,11.8086931 44.6464814,11.6322377 C44.5912132,11.4557823 44.4328329,11.3366482 44.2542425,11.3366482 L44.2532115,11.3366482 L40.0239611,11.3460591 L38.7257784,7.17144508 C38.6709227,6.99477579 38.5123361,6.875 38.3333333,6.875 L38.3333333,6.875 Z" id="star-gray"></path>
                </g>
            </g>
        </g>
    </g>
</svg>