<?xml version="1.0" encoding="UTF-8" standalone="no"?>
<svg width="24px" height="24px" viewBox="0 0 24 24" version="1.1" xmlns="http://www.w3.org/2000/svg" xmlns:xlink="http://www.w3.org/1999/xlink">
    <!-- Generator: Sketch 46.2 (44496) - http://www.bohemiancoding.com/sketch -->
    <title>icon/Show Password Off Dark</title>
    <desc>Created with Sketch.</desc>
    <defs></defs>
    <g id="2.2-Iconography" stroke="none" stroke-width="1" fill="none" fill-rule="evenodd">
        <g id="icon/Show-Password-Off-Dark">
            <g id="Group">
                <g id="Icons/Location" fill="#D8D8D8" opacity="0">
                    <rect id="Bounds" x="0" y="0" width="24" height="24"></rect>
                </g>
                <g id="Group-2" opacity="0.600000024" transform="translate(1.000000, 5.000000)" stroke-linecap="round" stroke="#000000" stroke-linejoin="round">
                    <g id="Page-1">
                        <path d="M21.9487365,6.44655143 C21.9487365,6.44655143 17.0787048,12.6872943 11.0709587,12.6872943 C5.0635619,12.6872943 0.193530159,6.44655143 0.193530159,6.44655143 C0.193530159,6.44655143 5.0635619,0.205808571 11.0709587,0.205808571 C17.0787048,0.205808571 21.9487365,6.44655143 21.9487365,6.44655143 L21.9487365,6.44655143 Z" id="Stroke-1"></path>
                        <path d="M13.6933873,6.41749429 C13.6933873,7.79838722 12.5739131,8.91749429 11.1933873,8.91749429 C9.81249437,8.91749429 8.6933873,7.79838722 8.6933873,6.41749429 C8.6933873,5.03660135 9.81249437,3.91749429 11.1933873,3.91749429 C12.5739131,3.91749429 13.6933873,5.03660135 13.6933873,6.41749429 L13.6933873,6.41749429 Z" id="Stroke-3"></path>
                    </g>
                </g>
            </g>
        </g>
    </g>
</svg>