<?xml version="1.0" encoding="UTF-8" standalone="no"?>
<svg width="24px" height="24px" viewBox="0 0 24 24" version="1.1" xmlns="http://www.w3.org/2000/svg" xmlns:xlink="http://www.w3.org/1999/xlink">
    <!-- Generator: Sketch 46.2 (44496) - http://www.bohemiancoding.com/sketch -->
    <title>Artboard</title>
    <desc>Created with Sketch.</desc>
    <defs></defs>
    <g id="Page-1" stroke="none" stroke-width="1" fill="none" fill-rule="evenodd">
        <g id="Artboard">
            <g id="icon-gift" transform="translate(1.000000, 1.000000)">
                <rect id="Bounds" fill="#D8D8D8" fill-rule="nonzero" opacity="0" x="0" y="0" width="22" height="22"></rect>
                <g id="Layer_1" opacity="0.600000024" stroke-linecap="round" stroke-linejoin="round" transform="translate(2.750000, 2.750000)" stroke="#000000">
                    <g id="Group">
                        <path d="M14.64375,15.46875 L1.85625,15.46875 C1.2375,15.46875 0.61875,14.953125 0.61875,14.23125 L0.61875,7.115625 C0.61875,6.496875 1.134375,5.878125 1.85625,5.878125 L14.64375,5.878125 C15.2625,5.878125 15.88125,6.39375 15.88125,7.115625 L15.88125,14.23125 C15.778125,14.953125 15.2625,15.46875 14.64375,15.46875 L14.64375,15.46875 Z" id="Shape"></path>
                        <path d="M8.559375,5.775 C8.559375,5.775 5.259375,5.878125 4.33125,4.95 C3.403125,4.021875 3.403125,2.475 4.33125,1.546875 C5.259375,0.61875 6.80625,0.61875 7.734375,1.546875 C8.6625,2.475 8.559375,5.775 8.559375,5.775 L8.559375,5.775 Z" id="Shape"></path>
                        <path d="M8.559375,5.775 C8.559375,5.775 11.859375,5.878125 12.7875,4.95 C13.715625,4.021875 13.715625,2.475 12.7875,1.546875 C11.859375,0.61875 10.3125,0.61875 9.384375,1.546875 C8.45625,2.475 8.559375,5.775 8.559375,5.775 L8.559375,5.775 Z" id="Shape"></path>
                        <path d="M0.915435734,10.5416667 L15.798392,10.5416667" id="Shape"></path>
                        <path d="M7.79166667,5.76160391 L7.79166667,15.3469685" id="Shape"></path>
                    </g>
                </g>
            </g>
        </g>
    </g>
</svg>