<?xml version="1.0" encoding="UTF-8"?>
<svg width="28px" height="28px" viewBox="0 0 28 28" version="1.1" xmlns="http://www.w3.org/2000/svg" xmlns:xlink="http://www.w3.org/1999/xlink">
    <!-- Generator: Sketch 51.3 (57544) - http://www.bohemiancoding.com/sketch -->
    <title>card-wh</title>
    <desc>Created with Sketch.</desc>
    <defs></defs>
    <g id="Page-2" stroke="none" stroke-width="1" fill="none" fill-rule="evenodd">
        <g id="card-wh" fill="#FFFFFF" stroke="#FFFFFF" stroke-width="0.3">
            <path d="M9.55072937,16.696 C9.78042625,16.696 9.96758667,16.8798667 9.96758667,17.1076 C9.96758667,17.3353333 9.78042625,17.5192 9.55072937,17.5192 L5.40389729,17.5192 C5.17325516,17.5192 4.98704,17.3353333 4.98704,17.1076 C4.98704,16.8798667 5.17325516,16.696 5.40389729,16.696 L9.55072937,16.696 Z M14.1333929,14.5810667 C14.3640368,14.5810667 14.5502533,14.7649333 14.5502533,14.9926667 C14.5502533,15.2194667 14.3640368,15.4033333 14.1333929,15.4033333 L5.40390044,15.4033333 C5.17325657,15.4033333 4.98704,15.2194667 4.98704,14.9926667 C4.98704,14.7649333 5.17325657,14.5810667 5.40390044,14.5810667 L14.1333929,14.5810667 Z M21.6084407,13.4638667 C20.3625866,13.4638667 19.3492667,12.4624 19.3492667,11.2322667 C19.3492667,10.0030667 20.3625866,9.0016 21.6084407,9.0016 C22.8542948,9.0016 23.86856,10.0030667 23.86856,11.2322667 C23.86856,12.4624 22.8542948,13.4638667 21.6084407,13.4638667 L21.6084407,13.4638667 Z M21.6084,8.17933333 C19.9031569,8.17933333 18.51552,9.54853333 18.51552,11.2322667 C18.51552,12.916 19.9031569,14.2861333 21.6084,14.2861333 C23.3136431,14.2861333 24.70128,12.916 24.70128,11.2322667 C24.70128,9.54853333 23.3136431,8.17933333 21.6084,8.17933333 L21.6084,8.17933333 Z M25.4338533,19.5548 C25.4338533,20.3584 24.7948615,21.0136 24.0103005,21.0136 L17.6260533,21.0136 L17.6269986,6.854 L24.0103005,6.854 C24.7948615,6.854 25.4338533,7.50826667 25.4338533,8.31373333 L25.4338533,19.5548 Z M24.0103355,6 L17.2092033,6 C16.9795056,6 16.7923444,6.19133333 16.7923444,6.42746667 L16.7923444,21.0136 L4.25727641,21.0136 C3.47271216,21.0136 2.83371767,20.3584 2.83371767,19.5548 L2.83371767,8.31373333 C2.83371767,7.50826667 3.47271216,6.854 4.25727641,6.854 L13.7164745,6.854 C13.9471175,6.854 14.1333333,6.6636 14.1333333,6.42746667 C14.1333333,6.19133333 13.9471175,6 13.7164745,6 L4.25727641,6 C3.01331671,6 2,7.03786667 2,8.31373333 L2,19.5548 C2,20.8297333 3.01331671,21.8666667 4.25727641,21.8666667 L24.0103355,21.8666667 C25.2542952,21.8666667 26.2666667,20.8297333 26.2666667,19.5548 L26.2666667,8.31373333 C26.2666667,7.03786667 25.2542952,6 24.0103355,6 L24.0103355,6 Z" id="Fill-1"></path>
        </g>
    </g>
</svg>