<?xml version="1.0" encoding="UTF-8" standalone="no"?>
<svg width="24px" height="24px" viewBox="0 0 24 24" version="1.1" xmlns="http://www.w3.org/2000/svg" xmlns:xlink="http://www.w3.org/1999/xlink">
    <!-- Generator: Sketch 43.2 (39069) - http://www.bohemiancoding.com/sketch -->
    <title>Icons/Card</title>
    <desc>Created with Sketch.</desc>
    <defs></defs>
    <g id="2.2-Iconography" stroke="none" stroke-width="1" fill="none" fill-rule="evenodd" opacity="0.600000024">
        <g id="icon/Card-Dark">
            <g id="Icons/Card">
                <rect id="Bounds" fill="#D8D8D8" opacity="0" x="0" y="0" width="24" height="24"></rect>
                <g id="Layer_1" transform="translate(3.000000, 6.000000)" stroke-linecap="round" stroke="#000000" stroke-linejoin="round">
                    <g id="Group">
                        <path d="M15.975,10.56 L2.025,10.56 C1.35,10.56 0.675,10.01 0.675,9.24 L0.675,1.76 C0.675,1.1 1.2375,0.44 2.025,0.44 L15.975,0.44 C16.65,0.44 17.325,0.99 17.325,1.76 L17.325,9.35 C17.2125,10.01 16.65,10.56 15.975,10.56 L15.975,10.56 Z" id="Shape"></path>
                        <path d="M10,0.44 L10,10.56" id="Shape"></path>
                        <ellipse id="Oval" cx="13.9125" cy="3.87" rx="1.9125" ry="1.87"></ellipse>
                        <path d="M2.8125,5.5 L7.99212265,5.5" id="Shape"></path>
                        <path d="M2.85153189,7.5 L5.77653189,7.5" id="Shape"></path>
                    </g>
                </g>
            </g>
        </g>
    </g>
</svg>