<?xml version="1.0" encoding="UTF-8" standalone="no"?>
<svg width="28px" height="28px" viewBox="0 0 28 28" version="1.1" xmlns="http://www.w3.org/2000/svg" xmlns:xlink="http://www.w3.org/1999/xlink">
    <!-- Generator: Sketch 43.2 (39069) - http://www.bohemiancoding.com/sketch -->
    <title>Bounds</title>
    <desc>Created with Sketch.</desc>
    <defs></defs>
    <g id="Page-1" stroke="none" stroke-width="1" fill="none" fill-rule="evenodd">
        <g id="more">
            <g id="Icons/support" transform="translate(3.000000, 11.000000)" stroke-opacity="0.58" stroke="#000000" stroke-width="0.75">
                <path d="M2.21666664,4.05833328 C1.20157488,4.05833328 0.375,3.23182097 0.375,2.21666664 C0.375,1.20142204 1.20142204,0.375 2.21666664,0.375 C3.23191124,0.375 4.05833328,1.20142204 4.05833328,2.21666664 C4.05833328,3.23182097 3.2317584,4.05833328 2.21666664,4.05833328 Z" id="Path"></path>
                <path d="M11.7166666,4.05833328 C10.7015749,4.05833328 9.875,3.23182097 9.875,2.21666664 C9.875,1.20142204 10.701422,0.375 11.7166666,0.375 C12.7319112,0.375 13.5583333,1.20142204 13.5583333,2.21666664 C13.5583333,3.23182097 12.7317584,4.05833328 11.7166666,4.05833328 Z" id="Path"></path>
                <path d="M20.7166666,4.05833328 C19.7015749,4.05833328 18.875,3.23182097 18.875,2.21666664 C18.875,1.20142204 19.701422,0.375 20.7166666,0.375 C21.7319112,0.375 22.5583333,1.20142204 22.5583333,2.21666664 C22.5583333,3.23182097 21.7317584,4.05833328 20.7166666,4.05833328 Z" id="Path"></path>
            </g>
            <rect id="Bounds" x="0" y="0" width="28" height="28"></rect>
        </g>
    </g>
</svg>