<?xml version="1.0" encoding="UTF-8" standalone="no"?>
<svg width="24px" height="24px" viewBox="0 0 24 24" version="1.1" xmlns="http://www.w3.org/2000/svg" xmlns:xlink="http://www.w3.org/1999/xlink">
    <!-- Generator: Sketch 46.2 (44496) - http://www.bohemiancoding.com/sketch -->
    <title>icon/Show_password_on</title>
    <desc>Created with Sketch.</desc>
    <defs></defs>
    <g id="2.2-Iconography" stroke="none" stroke-width="1" fill="none" fill-rule="evenodd">
        <g id="icon/Show_password_on">
            <rect id="Bounds" fill="#D8D8D8" opacity="0" x="0" y="0" width="24" height="24"></rect>
            <g id="Group-2" opacity="0.600000024" transform="translate(1.000000, 4.000000)" stroke-linecap="round" stroke="#000000" stroke-linejoin="round">
                <g id="Page-1">
                    <path d="M4.61092063,11.0863937 C1.93111111,9.4004254 0.193460317,7.30693333 0.193460317,7.30693333 C0.193460317,7.30693333 5.06349206,1.43956825 11.0712381,1.43956825 C12.0252698,1.43956825 12.9510159,1.58763175 13.8327619,1.83661587" id="Stroke-1"></path>
                    <path d="M15.8076635,2.58053016 C19.4422032,4.28745079 21.9488063,7.3070381 21.9488063,7.3070381 C21.9488063,7.3070381 17.0787746,13.1744032 11.0710286,13.1744032 C9.37947302,13.1744032 7.7783619,12.7092603 6.35045714,12.0408794" id="Stroke-3"></path>
                    <path d="M8.71577143,6.97902857 C8.86208889,5.9188381 9.70716825,5.08179048 10.7708508,4.94804444" id="Stroke-5"></path>
                    <path d="M12.7588825,5.63206984 C13.1852635,6.06194286 13.4489143,6.65349841 13.4489143,7.30686349 C13.4489143,8.62022857 12.3841841,9.68460952 11.0711683,9.68460952 C10.4181524,9.68460952 9.82659683,9.42130794 9.39672381,8.99527619" id="Stroke-7"></path>
                    <path d="M3.70933968,14.6817873 L18.1975619,0.193565079" id="Stroke-9"></path>
                </g>
            </g>
        </g>
    </g>
</svg>