<?xml version="1.0" encoding="UTF-8"?>
<svg width="28px" height="28px" viewBox="0 0 28 28" version="1.1" xmlns="http://www.w3.org/2000/svg" xmlns:xlink="http://www.w3.org/1999/xlink">
    <!-- Generator: Sketch 51.3 (57544) - http://www.bohemiancoding.com/sketch -->
    <title>bd-gr</title>
    <desc>Created with Sketch.</desc>
    <defs></defs>
    <g id="Page-2" stroke="none" stroke-width="1" fill="none" fill-rule="evenodd">
        <g id="bd-gr" stroke="#018F54">
            <path d="M12.6706834,5.14909566 C12.6706834,4.70578484 13.1700475,3.80030242 13.9100339,2.73832659 L14.3124517,2.16080526 L14.725256,2.73094869 C15.45384,3.73723018 15.9470834,4.64332174 15.9470834,5.14909566 C15.9470834,6.0479872 15.1591047,6.75560983 14.3088834,6.75560983 C13.3894394,6.75560983 12.6706834,5.99951627 12.6706834,5.14909566 Z M12.5324834,5.1491061 C12.5324834,4.55658774 13.3243764,3.2462362 14.2544703,2.02768638 C14.2679033,2.01011616 14.2873118,2.00025016 14.306348,2 C14.336076,2.00662167 14.3510299,2.01331609 14.3622923,2.02708973 C14.6756634,2.41240304 15.0363909,2.89998291 15.3583731,3.41415603 C15.8179225,4.14800995 16.0852834,4.77173598 16.0852834,5.1491061 C16.0852834,6.12285485 15.2350343,6.8998765 14.3088834,6.8998765 C13.3171525,6.8998765 12.5324834,6.06008684 12.5324834,5.1491061 Z M23.699187,12.3012473 C24.6002531,12.3012473 25.3333334,13.0262968 25.3333334,13.9124316 L25.3333334,16.1981976 C25.3333334,16.4727596 25.2075469,16.7105567 24.9628011,16.8954854 L24.7642277,17.0455265 L24.7642277,24.0296045 C24.7642277,24.9123203 24.1699952,25.5000432 23.2723578,25.5000432 L4.91869919,25.5000432 C4.16950726,25.5000432 3.42682927,24.7651836 3.42682927,24.0296045 L3.42682927,18.5748534 C3.42682927,18.5340342 3.45793782,18.5027167 3.49593496,18.5027167 C3.53334265,18.5027167 3.56504065,18.5345835 3.56504065,18.5748534 L3.56504065,24.0296045 C3.56504065,24.6953368 4.24689921,25.3557698 4.91869919,25.3557698 L23.2723578,25.3557698 C24.0869421,25.3557698 24.6260163,24.834465 24.6260163,24.0296045 L24.6260163,16.9164177 L23.8420733,17.4572831 C23.7000501,17.5552691 23.5819249,17.6423556 23.4641235,17.7377885 C23.3457844,17.8324552 23.2928114,17.8742366 23.2240512,17.9262306 C22.7001203,18.3224083 22.2412726,18.5073887 21.5650407,18.5073887 C20.7792254,18.5073887 20.3728585,18.322966 19.6747724,17.7941185 C18.9946055,17.2799229 18.6191383,17.1090867 17.8658537,17.1090867 C17.2253127,17.1090867 16.7922816,17.2649876 16.3057361,17.6099601 C16.2353147,17.6598906 16.181373,17.700045 16.0573365,17.7938146 C15.3596961,18.3223242 14.9517485,18.5073887 14.1666667,18.5073887 C13.3808514,18.5073887 12.9744845,18.322966 12.2763984,17.7941185 C11.5962315,17.2799229 11.2207643,17.1090867 10.4674797,17.1090867 C9.82693873,17.1090867 9.39390757,17.2649876 8.90736208,17.6099601 C8.83694067,17.6598906 8.78299903,17.700045 8.65896253,17.7938146 C7.96132213,18.3223242 7.55337448,18.5073887 6.76829269,18.5073887 C6.04020106,18.5073887 5.57011332,18.3256245 5.05531706,17.9390092 C4.98799061,17.8884467 4.9351083,17.8468797 4.81867023,17.7538973 C4.65795259,17.6266451 4.60506139,17.5855388 4.52249422,17.525643 C4.24391903,17.3235594 3.99200786,17.1961911 3.67932785,17.1199026 C3.27585301,17.0833714 3,16.7550831 3,16.337799 L3,13.9124316 C3,13.0258666 3.73237554,12.3012473 4.63414634,12.3012473 L14.097561,12.3012473 L14.097561,8.36564651 C14.097561,8.32482731 14.1286696,8.29350983 14.1666667,8.29350983 C14.2040744,8.29350983 14.2357724,8.32537665 14.2357724,8.36564651 L14.2357724,12.3012473 L23.699187,12.3012473 Z" id="Combined-Shape"></path>
        </g>
    </g>
</svg>