<?xml version="1.0" encoding="UTF-8" standalone="no"?>
<svg width="24px" height="24px" viewBox="0 0 24 24" version="1.1" xmlns="http://www.w3.org/2000/svg" xmlns:xlink="http://www.w3.org/1999/xlink">
    <!-- Generator: Sketch 46.2 (44496) - http://www.bohemiancoding.com/sketch -->
    <title>Artboard</title>
    <desc>Created with Sketch.</desc>
    <defs></defs>
    <g id="Page-1" stroke="none" stroke-width="1" fill="none" fill-rule="evenodd">
        <g id="Artboard" fill-rule="nonzero" fill="#C2A661">
            <g id="icon-reward-gold" transform="translate(5.000000, 0.000000)">
                <path d="M8.32793946,5.48529721 C8.39961089,5.28035364 8.51387605,5.27449754 8.58774108,5.48529721 L8.91574614,6.42137417 L9.92869053,6.44155936 C10.1390361,6.44575097 10.173232,6.55173608 10.0057633,6.67776149 L9.19780119,7.28577797 L9.48746354,8.23484965 C9.55088183,8.44263832 9.46193799,8.51416684 9.28951641,8.39510655 L8.45765899,7.82069365 L7.62475925,8.39510655 C7.4518013,8.51438772 7.36117675,8.44857569 7.42639007,8.23484965 L7.71597634,7.28577797 L6.90932671,6.67776149 C6.7418198,6.55150226 6.77702812,6.44574321 6.98709619,6.44155936 L8.00058101,6.42137417 L8.32793946,5.48529721 Z" id="Path"></path>
                <path d="M7.3727041,17.4969307 C7.3727041,16.5496853 6.60465653,15.7816377 5.65741111,15.7816377 C4.71024849,15.7816377 3.94243135,16.5496024 3.94243135,17.4969307 C3.94243135,18.444259 4.71024849,19.2122237 5.65741111,19.2122237 C6.60465653,19.2122237 7.3727041,18.4441761 7.3727041,17.4969307 Z M8.44466439,17.4969307 C8.44466439,19.0362035 7.19668387,20.284184 5.65741111,20.284184 C4.11817503,20.284184 2.87047106,19.0362402 2.87047106,17.4969307 C2.87047106,15.9576213 4.11817503,14.7096774 5.65741111,14.7096774 C7.19668387,14.7096774 8.44466439,15.957658 8.44466439,17.4969307 Z" id="Stroke-81"></path>
                <path d="M2.01118171,13.3161288 L2.70073035,22.5649196 C2.70678476,22.6653516 2.78979869,22.7435461 2.89021323,22.7435461 L8.43094413,22.7435461 C8.53135874,22.7435461 8.61437265,22.6653516 8.62093943,22.5573193 L9.30997254,13.3161288 L2.01118171,13.3161288 Z M10.3849056,13.3161288 L9.69044485,22.6294242 C9.65027915,23.2957022 9.09843716,23.8155064 8.43094413,23.8155064 L2.89021323,23.8155064 C2.22272026,23.8155064 1.67087827,23.2957022 1.63122498,22.6370245 L0.936249012,13.3161288 L0.565756824,13.3161288 C0.246810144,13.3161288 -0.00155956496,13.0392892 0.0329172667,12.7222114 L0.223083914,11.0088157 C0.354004614,10.4448496 0.713775454,9.8858561 1.2769957,9.8858561 L10.0439578,9.8858561 C10.6075646,9.8858561 10.9679412,10.4457908 11.1086006,11.071971 L11.2883642,12.7221029 C11.3229103,13.0392171 11.0745268,13.3161288 10.7555365,13.3161288 L10.3849056,13.3161288 Z M10.1594058,12.2441686 L10.0535185,11.250537 C10.0358428,11.1739422 9.98657985,11.0563645 9.93307409,10.9732299 C9.92769801,10.9648769 9.92534919,10.960242 9.92816152,10.9578164 L1.39303511,10.9578164 C1.39586073,10.9602409 1.39351143,10.9648752 1.38813431,10.9732299 C1.33455363,11.0564808 1.28514321,11.1742575 1.27802024,11.187954 L1.16317483,12.2441686 L10.1594058,12.2441686 Z" id="Combined-Shape"></path>
                <path d="M10.6315942,0.906780898 C10.7723204,0.504376251 11.0031862,0.511448822 11.1417122,0.906780898 L11.523124,1.99527288 L12.6837697,2.01840135 C13.1128488,2.02695172 13.1843868,2.24180697 12.8409886,2.50022467 L11.9152145,3.19689831 L12.2520406,4.3005009 C12.3765619,4.70849178 12.1930355,4.84280137 11.8394814,4.59866575 L10.8863277,3.94049551 L9.93197977,4.59866575 C9.57916684,4.84198473 9.39626129,4.70132103 9.51856188,4.3005009 L9.85529954,3.19689831 L8.93102926,2.50022467 C8.58933577,2.24267137 8.65892052,2.02698042 9.08966942,2.01840135 L10.2509343,1.99527288 L10.6315942,0.906780898 Z" id="Path-Copy"></path>
            </g>
        </g>
    </g>
</svg>