<?xml version="1.0" encoding="UTF-8"?>
<svg width="20px" height="20px" viewBox="0 0 20 20" version="1.1" xmlns="http://www.w3.org/2000/svg" xmlns:xlink="http://www.w3.org/1999/xlink">
    <!-- Generator: Sketch 51.3 (57544) - http://www.bohemiancoding.com/sketch -->
    <title>lock</title>
    <desc>Created with Sketch.</desc>
    <defs></defs>
    <g id="Page-2" stroke="none" stroke-width="1" fill="none" fill-rule="evenodd">
        <g id="lock">
            <g transform="translate(4.000000, 3.000000)">
                <path d="M1.1626275,13.9079427 C0.895549859,13.9079427 0.762011041,13.7776042 0.762011041,13.5169271 L0.762011041,5.95729167 C0.762011041,5.69661458 0.895549859,5.56627604 1.1626275,5.56627604 L10.9109612,5.56627604 C11.1780389,5.56627604 11.3115777,5.69661458 11.3115777,5.95729167 L11.3115777,13.5169271 C11.1780389,13.6472656 11.0445001,13.9079427 10.7774224,13.9079427 L1.1626275,13.9079427 Z M2.48268812,5.53 L2.49801568,3.48085938 C2.49801568,1.65611979 4.1004815,0.0920572917 5.97002496,0.0920572917 C7.83956841,0.0920572917 9.44203423,1.65611979 9.44203423,3.48085938 L9.4398208,5.53326158 L2.48268812,5.53 Z" id="Combined-Shape" stroke="#FFFFFF" stroke-linecap="round" stroke-linejoin="round"></path>
                <path d="M6,7 C5.9285559,7 5.86526038,7.04830341 5.84336622,7.11955094 L5.3252319,8.80309725 L3.63724164,8.79930198 L3.63683009,8.79930198 C3.56555061,8.79930198 3.5023374,8.84734662 3.48027863,8.91850789 C3.45821985,8.98966917 3.48250097,9.06764467 3.5403641,9.11154902 L4.90817287,10.1481747 L4.38304229,11.8293921 C4.3608189,11.9005534 4.3849354,11.9786151 4.44271622,12.0226057 C4.47160663,12.044601 4.50551789,12.0555556 4.53951145,12.0555556 C4.57358732,12.0555556 4.60766319,12.0445147 4.6365536,12.0224332 L6,10.9795108 L7.3634464,12.0224332 C7.39233681,12.0445147 7.42641268,12.0555556 7.46048855,12.0555556 C7.49448211,12.0555556 7.52839337,12.044601 7.55728378,12.0226057 C7.6150646,11.9786151 7.6391811,11.9005534 7.61695771,11.8293921 L7.09182713,10.1481747 L8.45963588,9.11154902 C8.51749903,9.06764467 8.54178015,8.98966917 8.51972137,8.91850789 C8.49766259,8.84734662 8.4344494,8.79930198 8.3631699,8.79930198 L8.36275838,8.79930198 L6.6747681,8.80309725 L6.15663378,7.11955094 C6.13473962,7.04830341 6.0714441,7 6,7 L6,7 Z" id="Fill-1-path" fill="#FFFFFF"></path>
            </g>
        </g>
    </g>
</svg>