<?xml version="1.0" encoding="UTF-8" standalone="no"?>
<svg width="24px" height="24px" viewBox="0 0 24 24" version="1.1" xmlns="http://www.w3.org/2000/svg" xmlns:xlink="http://www.w3.org/1999/xlink">
    <!-- Generator: Sketch 43.2 (39069) - http://www.bohemiancoding.com/sketch -->
    <title>Icons/Food/Cup2go</title>
    <desc>Created with Sketch.</desc>
    <defs></defs>
    <g id="2.2-Iconography" stroke="none" stroke-width="1" fill="none" fill-rule="evenodd" opacity="0.600000024">
        <g id="icon/Food/Cup2go-Dark">
            <g id="Icons/Food/Cup2go">
                <rect id="Bounds" fill="#D8D8D8" opacity="0" x="0" y="0" width="24" height="24"></rect>
                <g id="Layer_1" transform="translate(6.000000, 4.000000)" stroke-linecap="round" stroke-linejoin="round">
                    <g id="Group">
                        <g stroke="#000000">
                            <circle id="Oval" cx="6.1" cy="8.8" r="2"></circle>
                            <g id="Shape">
                                <path d="M10.6,3.8 L1.4,3.8 L2.2,15.1 C2.2,15.5 2.6,15.8 3,15.8 L9,15.8 C9.4,15.8 9.8,15.5 9.8,15.1 L10.6,3.8 L10.6,3.8 Z"></path>
                                <path d="M11.5,3.8 L0.5,3.8 L0.7,2.7 C0.8,2.5 1,2 1.3,2 L10.8,2 C11.1,2 11.3,2.5 11.4,2.8 L11.5,3.8 L11.5,3.8 Z"></path>
                                <path d="M2.2,2 L8.5,0.2 C9,0.1 9.5,0.4 9.5,0.9 L9.5,0.9"></path>
                            </g>
                        </g>
                        <path d="M9,1.7 L9,0.9" id="Shape"></path>
                    </g>
                </g>
            </g>
        </g>
    </g>
</svg>