<?xml version="1.0" encoding="UTF-8"?>
<svg width="28px" height="28px" viewBox="0 0 28 28" version="1.1" xmlns="http://www.w3.org/2000/svg" xmlns:xlink="http://www.w3.org/1999/xlink">
    <!-- Generator: Sketch 51.3 (57544) - http://www.bohemiancoding.com/sketch -->
    <title>cup-wh</title>
    <desc>Created with Sketch.</desc>
    <defs></defs>
    <g id="Page-2" stroke="none" stroke-width="1" fill="none" fill-rule="evenodd">
        <g id="cup-wh" stroke="#FFFFFF">
            <path d="M17.2790637,14.1720186 C17.2790637,15.767887 15.989703,17.0667555 14.4055165,17.0667555 C12.82133,17.0667555 11.5319692,15.767887 11.5319692,14.1720186 C11.5319692,12.575341 12.82133,11.2772818 14.4055165,11.2772818 C15.989703,11.2772818 17.2790637,12.575341 17.2790637,14.1720186 L17.2790637,14.1720186 Z" id="Fill-1"></path>
            <path d="M6.73483294,6.60483942 L23.0603686,6.60483942 C23.1886487,6.60483942 23.3102276,6.54601245 23.390642,6.44475292 C23.4700991,6.34349338 23.4997758,6.21040942 23.4710564,6.0840761 L23.1398257,4.64426196 C23.0412223,4.21800754 22.5750103,3 21.7478907,3 L6.73483294,3 C5.9067561,3 5.44054406,4.21800754 5.34194069,4.64426196 L5.01070995,6.0840761 C4.98199053,6.21040942 5.01166727,6.34349338 5.09208167,6.44475292 C5.17153875,6.54601245 5.29311766,6.60483942 5.42235509,6.60483942 L6.60655283,6.60483942 C6.60655283,6.61544756 7.95253668,23.3335574 7.95253668,23.3335574 C8.00806091,24.2680382 8.77965621,25 9.71016567,25 L18.7716007,25 C19.7011528,25 20.4737055,24.2680382 20.5292297,23.3412724 L21.8790428,8.76407844" id="Path" stroke-linecap="round" stroke-linejoin="round"></path>
        </g>
    </g>
</svg>