<?xml version="1.0" encoding="UTF-8" standalone="no"?>
<svg width="28px" height="28px" viewBox="0 0 28 28" version="1.1" xmlns="http://www.w3.org/2000/svg" xmlns:xlink="http://www.w3.org/1999/xlink">
    <!-- Generator: Sketch 43.2 (39069) - http://www.bohemiancoding.com/sketch -->
    <title>Bounds</title>
    <desc>Created with Sketch.</desc>
    <defs></defs>
    <g id="Page-1" stroke="none" stroke-width="1" fill="none" fill-rule="evenodd">
        <g id="more-a">
            <g id="Icons/support" transform="translate(2.000000, 11.000000)" fill="#00A862">
                <path d="M2.21666664,4.43333328 C0.99455837,4.43333328 0,3.43901802 0,2.21666664 C0,0.994315261 0.994315261,0 2.21666664,0 C3.43901802,0 4.43333328,0.994315261 4.43333328,2.21666664 C4.43333328,3.43901802 3.43877491,4.43333328 2.21666664,4.43333328 Z" id="Path"></path>
                <path d="M11.7166666,4.43333328 C10.4945584,4.43333328 9.5,3.43901802 9.5,2.21666664 C9.5,0.994315261 10.4943153,0 11.7166666,0 C12.939018,0 13.9333333,0.994315261 13.9333333,2.21666664 C13.9333333,3.43901802 12.9387749,4.43333328 11.7166666,4.43333328 Z" id="Path"></path>
                <path d="M21.7166666,4.43333328 C20.4945584,4.43333328 19.5,3.43901802 19.5,2.21666664 C19.5,0.994315261 20.4943153,0 21.7166666,0 C22.939018,0 23.9333333,0.994315261 23.9333333,2.21666664 C23.9333333,3.43901802 22.9387749,4.43333328 21.7166666,4.43333328 Z" id="Path"></path>
            </g>
            <rect id="Bounds" x="0" y="0" width="28" height="28"></rect>
        </g>
    </g>
</svg>