<?xml version="1.0" encoding="UTF-8" standalone="no"?>
<svg width="24px" height="24px" viewBox="0 0 24 24" version="1.1" xmlns="http://www.w3.org/2000/svg" xmlns:xlink="http://www.w3.org/1999/xlink">
    <!-- Generator: Sketch 43.2 (39069) - http://www.bohemiancoding.com/sketch -->
    <title>Container</title>
    <desc>Created with Sketch.</desc>
    <defs></defs>
    <g id="2.2-Iconography" stroke="none" stroke-width="1" fill="none" fill-rule="evenodd" stroke-linecap="round" stroke-linejoin="round">
        <g id="Group-8-Copy" transform="translate(3.000000, 3.000000)" stroke="#FFFFFF">
            <path d="M5.24729646,14.8699268 C4.24081646,14.9426521 3.24016313,15.1101778 2.2597498,15.3699268" id="Stroke-68" transform="translate(3.753523, 15.369927) rotate(-41.000000) translate(-3.753523, -15.369927) "></path>
            <path d="M16.0600489,6.83604578 C16.9968133,6.46099673 17.90148,6.00513317 18.76076,5.47522384" id="Stroke-86"></path>
            <path d="M15.8307542,2.60645244 C15.3930387,3.04190725 15.0115453,3.53417836 14.6987453,4.06706183" id="Stroke-88"></path>
            <path d="M2.70362178,1.18487604 C2.06217733,1.18487604 1.54217289,0.663171225 1.54217289,0.0196293103 C1.54217289,0.663171225 1.02227067,1.18487604 0.380826222,1.18487604 C1.02227067,1.18487604 1.54217289,1.70658086 1.54217289,2.35012277 C1.54217289,1.70658086 2.06217733,1.18487604 2.70362178,1.18487604 L2.70362178,1.18487604 Z" id="Stroke-135"></path>
            <path d="M19.922168,15.0286164 C19.2807236,15.0286164 18.7607191,14.5069116 18.7607191,13.8633696 C18.7607191,14.5069116 18.2408169,15.0286164 17.5993724,15.0286164 C18.2408169,15.0286164 18.7607191,15.5503212 18.7607191,16.1938631 C18.7607191,15.5503212 19.2807236,15.0286164 19.922168,15.0286164 L19.922168,15.0286164 Z" id="Stroke-136"></path>
            <g id="Group-194" transform="translate(5.995556, 6.762574)">
                <path d="M7.06016178,2.81871359 L7.46087289,3.89381317 L11.1816596,4.05687797 C11.6650684,4.07810716 11.7500151,4.34024153 11.3712818,4.64247548 L8.45661956,6.96866156" id="Stroke-184"></path>
                <path d="M5.84947244,0.05285761 C5.960588,0.0527550535 6.07170356,0.16649019 6.15644578,0.393857907 L7.06019244,2.81870333" id="Stroke-186"></path>
                <path d="M4.68347467,2.87096611 L5.199288,1.3151843" id="Stroke-188"></path>
                <path d="M2.89010844,8.24346938 L3.24246844,6.96858977 L0.327806222,4.64250624 C-0.0508248889,4.34027229 0.0340195556,4.07803537 0.517428444,4.05690874 L1.24146844,4.02511623" id="Stroke-190"></path>
                <path d="M8.45666044,6.96862054 L9.45179378,10.569276 C9.58110489,11.0371387 9.35887378,11.1991779 8.95530044,10.9311978 L5.84958489,8.86899212 L2.74376711,10.9311978 C2.340296,11.1991779 2.11796267,11.0371387 2.24727378,10.569276 L2.89014933,8.24350015" id="Stroke-192"></path>
            </g>
            <path d="M6.41916444,0.292316736 C6.53028,0.29221418 6.64139556,0.405949316 6.72613778,0.633317033 L8.03049333,4.13326204 L11.75128,4.29632684 C12.2347911,4.31755603 12.3196356,4.5796904 11.9410044,4.88192435 L9.02634222,7.20811043" id="Stroke-196"></path>
            <path d="M9.02635244,7.20807967 L10.0214858,10.8087351 C10.1507969,11.2765978 9.92856578,11.438637 9.52499244,11.170657 L6.41927689,9.10845125 L3.31345911,11.170657 C2.909988,11.438637 2.68765467,11.2765978 2.81696578,10.8087351 L3.81209911,7.20807967 L0.897539111,4.88189358 C0.518805778,4.57965963 0.603752444,4.31752527 1.08716133,4.29629608 L4.807948,4.13323127 L5.76904133,1.55465369" id="Stroke-198"></path>
        </g>
    </g>
</svg>