<?xml version="1.0" encoding="UTF-8"?>
<svg width="28px" height="28px" viewBox="0 0 28 28" version="1.1" xmlns="http://www.w3.org/2000/svg" xmlns:xlink="http://www.w3.org/1999/xlink">
    <!-- Generator: Sketch 51.3 (57544) - http://www.bohemiancoding.com/sketch -->
    <title>crown-gr</title>
    <desc>Created with Sketch.</desc>
    <defs></defs>
    <g id="Page-2" stroke="none" stroke-width="1" fill="none" fill-rule="evenodd">
        <g id="crown-gr" fill="#9D8C54" fill-rule="nonzero">
            <path d="M18.757768,10.8467544 L22.240117,8.06087524 C22.5504148,7.81263697 22.9359582,7.67739566 23.3333333,7.67739566 C24.2998316,7.67739566 25.0833333,8.46089734 25.0833333,9.42739566 L25.0833333,19.8333333 C25.0833333,21.4441639 23.7774972,22.75 22.1666667,22.75 L5.83333333,22.75 C4.22250281,22.75 2.91666667,21.4441639 2.91666667,19.8333333 L2.91666667,9.42739566 C2.91666667,9.03002054 3.05190798,8.64447716 3.30014625,8.33417932 C3.90391296,7.57947094 5.00517461,7.45710853 5.759883,8.06087524 L9.24223197,10.8467544 L12.6334796,6.6076949 C12.7142102,6.50678167 12.8058704,6.4151214 12.9067837,6.33439082 C13.6614921,5.73062411 14.7627537,5.85298652 15.3665204,6.6076949 L18.757768,10.8467544 Z M22.9689279,8.97188885 L19.0310721,12.1221735 C18.7795026,12.323429 18.4124154,12.2826416 18.2111599,12.0310721 L14.4555068,7.33650579 C14.2542512,7.08493633 13.887164,7.04414886 13.6355946,7.24540443 C13.6019568,7.27231462 13.5714034,7.30286805 13.5444932,7.33650579 L9.78884014,12.0310721 C9.58758457,12.2826416 9.22049735,12.323429 8.96892789,12.1221735 L5.03107211,8.97188885 C4.77950265,8.77063328 4.41241543,8.81142075 4.21115986,9.06299021 C4.12841377,9.16642282 4.08333333,9.29493728 4.08333333,9.42739566 L4.08333333,19.8333333 C4.08333333,20.7998316 4.86683502,21.5833333 5.83333333,21.5833333 L22.1666667,21.5833333 C23.133165,21.5833333 23.9166667,20.7998316 23.9166667,19.8333333 L23.9166667,9.42739566 C23.9166667,9.10522955 23.6554994,8.84406232 23.3333333,8.84406232 C23.200875,8.84406232 23.0723605,8.88914276 22.9689279,8.97188885 Z M5.83333333,18.0833333 C5.51116723,18.0833333 5.25,17.8221661 5.25,17.5 C5.25,17.1778339 5.51116723,16.9166667 5.83333333,16.9166667 L16.3333333,16.9166667 C16.6554994,16.9166667 16.9166667,17.1778339 16.9166667,17.5 C16.9166667,17.8221661 16.6554994,18.0833333 16.3333333,18.0833333 L5.83333333,18.0833333 Z M19.25,18.0833333 C18.9278339,18.0833333 18.6666667,17.8221661 18.6666667,17.5 C18.6666667,17.1778339 18.9278339,16.9166667 19.25,16.9166667 L21.5833333,16.9166667 C21.9054994,16.9166667 22.1666667,17.1778339 22.1666667,17.5 C22.1666667,17.8221661 21.9054994,18.0833333 21.5833333,18.0833333 L19.25,18.0833333 Z" id="Combined-Shape"></path>
        </g>
    </g>
</svg>