<?xml version="1.0" encoding="UTF-8"?>
<svg width="347px" height="508px" viewBox="0 0 347 508" version="1.1" xmlns="http://www.w3.org/2000/svg" xmlns:xlink="http://www.w3.org/1999/xlink">
    <!-- Generator: Sketch 51.3 (57544) - http://www.bohemiancoding.com/sketch -->
    <title>star-bg-welcome</title>
    <desc>Created with Sketch.</desc>
    <defs>
        <path d="M1.02903108,27.7605234 L60.4056426,214.610291 C63.1240407,223.166986 70.7763315,228.99672 79.4616136,229.132951 L256.859746,231.892796 L119.252166,346.829208 C113.092729,351.975439 110.358474,360.351277 112.238699,368.313725 L150.794213,532.877804 C153.070871,542.531392 161.405027,549 170.581886,549 C172.185741,549 173.814515,548.8027 175.441023,548.389311 C186.38031,545.615372 193.076631,534.174344 190.401274,522.836664 L154.924346,371.324893 L326.400901,228.099476 C333.090426,222.509321 335.684231,213.175171 332.888811,204.754706 C330.091127,196.33659 322.509061,190.631343 313.916658,190.49981 L94.5894992,187.086997 L39.7571433,14.5297062 C36.9322746,5.63948022 28.9651027,0 20.3998832,0 C18.2863286,0 16.1319981,0.342925495 14.0139129,1.06870616 C3.31928151,4.72344637 -2.49355985,16.6718162 1.02903108,27.7605234 Z" id="path-1"></path>
    </defs>
    <g id="icons" stroke="none" stroke-width="1" fill="none" fill-rule="evenodd">
        <g id="star-bg-welcome">
            <g id="bg" transform="translate(-139.000000, 0.000000)">
                <g id="Group-3" transform="translate(146.000000, -20.000000)">
                    <mask id="mask-2" fill="white">
                        <use xlink:href="#path-1"></use>
                    </mask>
                    <g id="Clip-2"></g>
                    <path d="M1.02903108,27.7291433 L60.4056426,214.367698 C63.1240407,222.914722 70.7763315,228.737865 79.4616136,228.873942 L256.859746,231.630668 L119.252166,346.437157 C113.092729,351.577571 110.358474,359.943941 112.238699,367.897389 L149.730519,527.896028 C152.007177,537.538704 160.341333,544 169.518192,544 C171.122047,544 172.75082,543.802923 174.377328,543.390001 C185.316616,540.619198 192.012936,529.191103 189.33758,517.866238 L154.924346,370.905153 L326.400901,227.841636 C333.090426,222.2578 335.684231,212.934201 332.888811,204.523254 C330.091127,196.114654 322.509061,190.415856 313.916658,190.284472 L94.5894992,186.875516 L39.7571433,14.5132821 C36.9322746,5.63310544 28.9651027,0 20.3998832,0 C18.2863286,0 16.1319981,0.342537857 14.0139129,1.06749811 C3.31928151,4.71810705 -2.49355985,16.6529706 1.02903108,27.7291433 Z" id="Fill-1" fill="#FFFFFF" opacity="0.12" mask="url(#mask-2)"></path>
                </g>
            </g>
        </g>
    </g>
</svg>