<svg width="94" height="142" viewBox="0 0 94 142" xmlns="http://www.w3.org/2000/svg"><title>01</title><g fill="none" fill-rule="evenodd"><path d="M15.202 125.89h4.37c-.322-.736-1.012-1.771-1.656-2.645h-.92a14.753 14.753 0 0 1-1.794 2.645zm3.979 3.565v-1.311h-4.577v1.311h4.577zm-7.268 3.611v-1.357H8.164c-.069.46-.115.92-.184 1.357h3.933zm-3.864-9.798h-.69a17.84 17.84 0 0 1-2.024 2.622h3.91c-.207-.713-.667-1.748-1.196-2.622zm16.054-2.001v1.978H20.86c.46.598.874 1.219 1.104 1.679l-2.346.966h2.277v5.819h-7.291v1.357h8.418s-.023.667-.069.989c-.23 3.059-.506 4.554-1.104 5.152-.483.552-1.035.736-1.748.805-.644.069-1.725.092-2.921.046-.046-.805-.322-1.817-.759-2.484.966.092 1.932.115 2.346.092.345 0 .575-.023.782-.207.23-.23.414-.851.552-2.116h-5.497v5.681h-2.691v-4.485c-1.932 1.886-4.485 3.45-6.992 4.393-.391-.667-1.15-1.656-1.725-2.162 2.392-.713 4.876-1.978 6.67-3.427H4.921c.345-1.564.69-3.956.851-5.888h6.141v-1.311H4.944v-2.208c-.575-.391-1.518-.897-2.07-1.15 1.541-1.311 2.944-3.381 3.703-5.451l2.484.667c-.184.414-.368.851-.575 1.288h5.313v1.978h-2.99c.345.644.667 1.288.828 1.771l-2.254.851h5.474a21.65 21.65 0 0 0-2.185-1.242c1.38-1.242 2.553-3.289 3.128-5.313l2.645.621c-.115.414-.276.874-.46 1.311h6.118zm1.84 7.291h21.16v2.967h-21.16v-2.967zm31.648 6.21h-4.922v2.806h4.922v-2.806zm-7.521 6.21v-8.648h10.212v8.533h-2.691v-.92h-4.922v1.035H50.07zm7.061-16.468h-3.91c.552 1.035 1.035 2.392 1.265 3.289l-1.38.391h2.737a26.864 26.864 0 0 0 1.288-3.68zm.874 0l1.863.414c-.483 1.104-.943 2.3-1.403 3.266h2.691v2.484H49.012v-2.484h2.944c-.23-.943-.667-2.254-1.15-3.22l1.863-.46h-3.082v-2.461h4.347c-.184-.667-.46-1.38-.736-2.001l2.507-.713c.414.851.828 1.886 1.104 2.714h3.887v2.461h-2.691zm10.327-4.002l1.909 1.173c-.782 2.208-1.725 4.853-2.599 6.831 1.84 2.07 2.185 3.887 2.185 5.382 0 1.656-.368 2.783-1.219 3.381-.414.299-.92.46-1.518.552a8.925 8.925 0 0 1-1.771.046c-.046-.713-.253-1.794-.667-2.53.506.046.966.046 1.288.046.322 0 .598-.069.851-.23.391-.23.529-.805.529-1.587 0-1.242-.483-2.898-2.231-4.738.644-1.679 1.357-4.025 1.886-5.773h-2.576v17.848h-2.392V120.6h5.934l.391-.092zm15.893.253l2.576-.966c1.38 2.898 4.14 6.302 6.509 8.257-.69.529-1.702 1.587-2.208 2.323a71.094 71.094 0 0 1-1.288-1.311v.069c-.23 6.785-.506 9.499-1.311 10.442-.575.736-1.196.989-2.07 1.081-.828.115-2.116.115-3.496.069-.046-.828-.391-1.978-.874-2.76 1.242.115 2.461.115 3.013.115.414 0 .667-.069.92-.299.483-.529.713-2.484.92-7.153h-4.807c-.598 4.347-2.116 8.257-8.027 10.442-.322-.736-1.104-1.84-1.725-2.438 5.129-1.656 6.348-4.692 6.831-8.004h-3.703v-1.357c-.437.483-.897.92-1.38 1.311-.506-.575-1.656-1.679-2.323-2.162 2.691-1.932 5.014-5.152 6.302-8.579l2.944.805c-1.035 2.668-2.576 5.198-4.301 7.268h12.121c-1.725-2.139-3.427-4.692-4.623-7.153z" fill="#231916"/><path d="M2 109h91" stroke="#19A562" stroke-width="4"/><path d="M21.748 84.72c2.292 0 4.055-.886 5.29-2.658 1.236-1.772 1.854-5.541 1.854-11.306v-46.03c-.036-6.983-1.665-10.904-4.888-11.763-.645-.143-1.674-.215-3.088-.215-1.415 0-2.776.698-4.083 2.095-1.306 1.396-1.96 4.673-1.96 9.829v46.084c0 5.872.582 9.668 1.746 11.387 1.163 1.718 2.873 2.578 5.129 2.578zm16.436 5.64c-3.366 4.512-8.791 6.768-16.275 6.768-7.484 0-12.917-2.256-16.301-6.768C2.224 85.85.532 79.224.532 70.487v-45.17c0-8.308 1.71-14.547 5.13-18.719C9.082 2.427 14.497.341 21.909.341c7.412 0 12.828 2.086 16.248 6.257 3.42 4.172 5.13 10.411 5.13 18.718v45.171c0 8.737-1.702 15.362-5.103 19.873zM72.105 96V19.3c-1.217 1.469-2.936 2.606-5.156 3.411-2.22.806-4.404 1.209-6.553 1.209V13.23c3.044-.43 5.936-1.665 8.675-3.706 2.74-2.04 4.825-4.744 6.257-8.11H86.5V96H72.105z" fill="#231916"/></g></svg>